<?xml version="1.0" encoding="UTF-8" standalone="no"?>
<!-- Created with Inkscape (http://www.inkscape.org/) -->

<svg
   xmlns:dc="http://purl.org/dc/elements/1.1/"
   xmlns:cc="http://creativecommons.org/ns#"
   xmlns:rdf="http://www.w3.org/1999/02/22-rdf-syntax-ns#"
   xmlns:svg="http://www.w3.org/2000/svg"
   xmlns="http://www.w3.org/2000/svg"
   xmlns:sodipodi="http://sodipodi.sourceforge.net/DTD/sodipodi-0.dtd"
   xmlns:inkscape="http://www.inkscape.org/namespaces/inkscape"
   width="171.7346mm"
   height="80mm"
   viewBox="0 0 171.7346 80"
   version="1.1"
   id="svg988"
   inkscape:version="0.92.5 (2060ec1f9f, 2020-04-08)"
   sodipodi:docname="enum_database.svg">
  <defs
     id="defs982" />
  <sodipodi:namedview
     id="base"
     pagecolor="#ffffff"
     bordercolor="#666666"
     borderopacity="1.0"
     inkscape:pageopacity="0.0"
     inkscape:pageshadow="2"
     inkscape:zoom="1.4"
     inkscape:cx="273.586"
     inkscape:cy="342.38354"
     inkscape:document-units="mm"
     inkscape:current-layer="layer1-3-5"
     showgrid="false"
     inkscape:window-width="3696"
     inkscape:window-height="2032"
     inkscape:window-x="144"
     inkscape:window-y="54"
     inkscape:window-maximized="1" />
  <metadata
     id="metadata985">
    <rdf:RDF>
      <cc:Work
         rdf:about="">
        <dc:format>image/svg+xml</dc:format>
        <dc:type
           rdf:resource="http://purl.org/dc/dcmitype/StillImage" />
        <dc:title></dc:title>
      </cc:Work>
    </rdf:RDF>
  </metadata>
  <g
     inkscape:label="Layer 1"
     inkscape:groupmode="layer"
     id="layer1"
     transform="translate(-22.183368,-60.064357)">
    <g
       transform="matrix(-0.03265132,2.1356102e-5,2.1356102e-5,0.03265132,68.313511,243.8454)"
       id="layer1-3-5"
       inkscape:label="Layer 1">
      <path
         style="opacity:1;fill:#ffffff;fill-opacity:1;stroke:#cccccc;stroke-width:6.82121372;stroke-linecap:round;stroke-linejoin:bevel;stroke-miterlimit:4;stroke-dasharray:none;stroke-dashoffset:0;stroke-opacity:1;paint-order:markers stroke fill"
         d="m 144.19819,-2565.5379 c -0.8182,10.2769 -18.2865,5.0741 -12.4751,-3.7959 3.5059,-5.3262 12.9617,-2.7932 12.4751,3.7959 z"
         id="path821-0-9"
         inkscape:connector-curvature="0" />
      <rect
         style="fill:#4f4f4f;fill-opacity:1;stroke:none;stroke-width:649.47393799;stroke-linecap:square;stroke-linejoin:miter;stroke-miterlimit:4;stroke-dasharray:none;stroke-dashoffset:0;stroke-opacity:1;paint-order:normal"
         id="rect1603"
         width="1769.7445"
         height="1759.6855"
         x="-1404.6251"
         y="-5268.9502"
         transform="matrix(-0.99999979,6.540649e-4,6.5406467e-4,0.99999979,0,0)" />
      <path
         style="fill:none;fill-opacity:1;stroke:#000000;stroke-width:36.6842804;stroke-linecap:square;stroke-linejoin:miter;stroke-miterlimit:4;stroke-dasharray:none;stroke-dashoffset:0;stroke-opacity:1;paint-order:normal"
         id="path1866"
         transform="matrix(-0.99999979,6.5406459e-4,6.5406494e-4,0.99999979,0,0)"
         sodipodi:type="arc"
         sodipodi:cx="365.13388"
         sodipodi:cy="-4240.5396"
         sodipodi:rx="109.4015"
         sodipodi:ry="100.72198"
         sodipodi:start="1.5785679"
         sodipodi:end="4.7052941"
         d="M 364.28367,-4139.8206 A 109.4015,100.72198 0 0 1 255.73239,-4240.5736 109.4015,100.72198 0 0 1 364.3577,-4341.259"
         sodipodi:open="true" />
      <path
         style="fill:#4f4f4f;fill-opacity:1;stroke:none;stroke-width:846.52166748;stroke-linecap:square;stroke-linejoin:miter;stroke-miterlimit:4;stroke-dasharray:none;stroke-dashoffset:0;stroke-opacity:1;paint-order:normal"
         d="m -358.85048,-4358.5125 -2053.94922,-123.1622 -540.477,-206.786 17.3699,895.2168 500.5842,-202.2183 2078.00335,-127.2496 z"
         id="rect847"
         inkscape:connector-curvature="0"
         sodipodi:nodetypes="ccccccc" />
      <ellipse
         style="fill:#000000;fill-opacity:1;stroke:none;stroke-width:451.15817261;stroke-linecap:square;stroke-linejoin:miter;stroke-miterlimit:4;stroke-dasharray:none;stroke-dashoffset:0;stroke-opacity:1;paint-order:normal"
         id="path852-1"
         cx="2976.5039"
         cy="-4240.876"
         rx="166.40694"
         ry="449.06094"
         transform="matrix(-0.99999979,6.5406536e-4,6.5406536e-4,0.99999979,0,0)" />
      <g
         transform="matrix(0.75906484,-0.02332957,0.02332957,0.75906484,-3189.3259,-4269.4236)"
         id="layer1-3-5-3"
         inkscape:label="Layer 1">
        <path
           sodipodi:nodetypes="cssssssssc"
           inkscape:connector-curvature="0"
           id="path815-62-1"
           d="m -583.51096,351.16296 c 73.33956,34.67743 214.02067,38.273 314.56693,38.273 91.05659,0 179.589663,4.863 248.745811,-12.78641 35.281013,-9.0041 65.81516,-25.11711 87.753347,-47.94752 37.802592,-39.34001 42.610982,-102.30117 42.610982,-142.42242 0,-112.20015 -169.733393,-203.156346 -379.11014,-203.156346 -49.81459,0 -87.83485,41.078396 -95.13727,-20.095064 -6.5705,-55.041981 -172.60735,-4.75719 -182.68976,22.664864 -37.98207,103.30328 -55.88024,74.209019 -92.32741,132.270006 -41.61229,66.28911 -23.36424,195.93008 55.58751,233.19989 z"
           style="opacity:1;fill:#dfda3b;fill-opacity:1;stroke:none;stroke-width:0.24775086" />
        <path
           sodipodi:nodetypes="cc"
           inkscape:connector-curvature="0"
           id="path825-9-9"
           d="m -648.81008,-123.30952 c -428.62502,-26.45833 -146.65475,75.595236 -3.0238,75.595236"
           style="fill:none;stroke:none;stroke-width:0.26458332px;stroke-linecap:butt;stroke-linejoin:miter;stroke-opacity:1" />
        <path
           sodipodi:nodetypes="cc"
           inkscape:connector-curvature="0"
           id="path837-1-4"
           d="M -152.90533,-0.0892841 C 30.791115,79.28571 307.46966,-619.21429 105.63038,196.45834"
           style="fill:none;stroke:none;stroke-width:0.26458332px;stroke-linecap:butt;stroke-linejoin:miter;stroke-opacity:1" />
        <path
           sodipodi:nodetypes="ssssscsccsccss"
           inkscape:connector-curvature="0"
           id="path823-2"
           transform="matrix(0.26458333,0,0,0.26458333,-876.57102,-341.02382)"
           d="M 1566.543,0 C 1234.0326,0 948.81868,202.49761 827.49414,490.90039 808.56812,535.88981 755.13487,597.68259 703.90625,661.97266 646.38993,734.15358 591.65234,809.48427 591.65234,867.7207 c 0,44.29671 158.90311,40.34999 180.26368,73.92969 37.5284,58.99611 10.83457,109.48651 55.97613,165.17571 48.04472,43.9317 -135.22628,-64.3645 106.11371,124.8594 73.62324,57.7247 159.70834,104.814 256.99214,138.3809 -108.0711,231.0849 -174.728,175.5377 -293.4648,364.6875 -57.23888,924.6081 241.9449,187.4137 897.9437,52.0733 1102.674,-227.495 2450.6903,-529.2804 501.0661,-561.7042 -68.7482,0 -131.5077,20.6758 -184.8868,35.7032 126.294,-106.0084 200.0645,-263.97447 200.0645,-478.14847 C 2311.7207,340.06097 2009.1597,0 1566.543,0 Z"
           style="opacity:1;fill:#dfda3b;fill-opacity:1;stroke-width:0.99999994" />
        <path
           sodipodi:nodetypes="csscc"
           inkscape:connector-curvature="0"
           id="path879-7"
           d="m -480.94602,-147.36957 c 0,0 36.06798,-3.66631 26.43564,-35.55636 -9.63235,-31.89005 -45.77208,-43.08665 -72.44161,-53.10334 -47.55706,-17.86177 -80.35549,27.88025 -85.93737,60.77688 27.97687,37.98487 131.94334,27.88282 131.94334,27.88282 z"
           style="opacity:1;fill:#ffffff;fill-opacity:1;stroke:none;stroke-width:0.35553193" />
        <ellipse
           transform="matrix(-0.99766749,-0.06826108,-0.06826108,0.99766749,0,0)"
           ry="33.306507"
           rx="32.072929"
           cy="-143.63979"
           cx="551.55084"
           id="path890-0"
           style="opacity:1;fill:#000000;fill-opacity:1;stroke:none;stroke-width:0.27912599" />
        <path
           sodipodi:nodetypes="sszssssssccss"
           inkscape:connector-curvature="0"
           id="path839-9-78"
           d="m 113.86835,159.16011 c 34.76763,-142.801184 57.97616,-238.178359 59.81369,-296.52232 2.67903,-85.06285 -7.05645,-175.23559 -14.05692,-185.14259 -7.00047,-9.907 -18.12198,13.53238 -31.40996,20.15835 -13.2365,6.6003 -29.690531,113.67867 -46.121275,164.769 C 55.580503,-55.135823 -21.031885,2.6294063 -40.263383,-1.0535027 -71.743162,-7.0820064 -87.219609,-11.474759 -139.88081,-13.033766 c -64.98314,-1.923792 -125.12015,11.9928236 -155.87329,39.840676 -38.11742,34.51642 99.60372,2.156324 99.60372,2.156324 77.23825,29.255863 233.575311,24.205224 278.372237,85.359466 2.24612,11.08292 24.572353,35.70123 24.150743,49.37312 -0.2276,7.37999 2.87441,13.41816 2.96318,13.41816 0.0887,0 2.12841,-8.07924 4.53257,-17.95387 z"
           style="opacity:1;fill:#dfda3b;fill-opacity:1;stroke:none;stroke-width:0.75595242" />
        <path
           sodipodi:nodetypes="sszsszsscsssss"
           inkscape:connector-curvature="0"
           id="path839-3-3"
           d="m 113.86834,159.16013 c 34.76763,-142.801183 57.97616,-238.178366 59.81369,-296.52232 2.67903,-85.06285 -7.05645,-175.2356 -14.05692,-185.1426 -7.00047,-9.907 -7.55047,83.05341 -10.65637,103.53036 -3.01559,19.88151 -42.25899,131.451477 -58.689739,182.541807 C 63.765621,46.008998 16.29032,51.083368 -8.6223443,43.756278 -33.535009,36.429188 -115.99784,17.613197 -147.61131,17.886923 c -44.65123,0.386614 -233.83061,-11.2881722 -335.72547,12.651705 -145.26914,34.130527 -117.91942,88.766702 -91.5903,124.709742 2.24612,11.08292 34.79587,57.8942 180.46731,29.99895 39.51052,-7.56604 157.39291,77.53122 281.13061,62.45768 70.515222,-8.59006 134.409439,-15.51073 175.56467,-32.87359 29.171635,-12.30714 47.08209,-37.71742 47.10026,-37.71742 0.0887,0 2.12841,-8.07924 4.53257,-17.95386 z"
           style="opacity:1;fill:#dfda3b;fill-opacity:1;stroke:none;stroke-width:0.75595242" />
        <path
           sodipodi:nodetypes="cssszsc"
           inkscape:connector-curvature="0"
           id="path815-6-6-4"
           d="m -583.51096,351.16299 c 15.75201,7.44809 27.04074,10.11491 27.04074,10.11491 10.10547,-9.4643 35.73743,-60.95134 37.736,-94.04589 1.38429,-22.9227 -19.17775,-133.42532 -24.13186,-148.22856 -7.17599,-21.442368 -11.72356,-51.550823 -32.34495,-53.050872 -20.62138,-1.500049 -49.64599,22.639689 -71.40006,62.887232 -30.3628,56.17467 -15.85162,185.05336 63.10013,222.32318 z"
           style="opacity:1;fill:#dfda3b;fill-opacity:1;stroke:none;stroke-width:0.24775086" />
        <ellipse
           transform="matrix(0.99804631,0.06247843,-0.07457346,0.99721552,0,0)"
           ry="9.7079105"
           rx="10.481296"
           cy="-163.13562"
           cx="-562.04669"
           id="path821-0-5"
           style="opacity:1;fill:#ffffff;fill-opacity:1;stroke:#cccccc;stroke-width:10.55003166;stroke-linecap:round;stroke-linejoin:bevel;stroke-miterlimit:4;stroke-dasharray:none;stroke-dashoffset:0;stroke-opacity:1;paint-order:markers stroke fill" />
        <path
           sodipodi:nodetypes="cssssc"
           inkscape:connector-curvature="0"
           id="path838-6"
           d="m -876.57357,-44.67782 c 0,0 41.99161,5.585111 86.70316,-1.090335 59.68359,-8.910775 125.59579,-31.555203 125.50504,-27.955891 -0.28792,11.419359 23.34911,36.358905 17.32332,41.610722 -6.26729,5.462292 -40.6425,-0.09335 -50.48365,2.602361 -166.46655,45.598806 -179.04787,-15.166857 -179.04787,-15.166857 z"
           style="fill:#a45b00;fill-opacity:1;stroke:none;stroke-width:0.26639256px;stroke-linecap:butt;stroke-linejoin:miter;stroke-opacity:1" />
        <path
           sodipodi:nodetypes="ssssscssscs"
           inkscape:connector-curvature="0"
           id="path827-3-2"
           d="m -669.15281,-86.318413 c -5.8267,-18.563947 -2.9423,-40.418417 -2.8656,-61.609667 0,0 10.78153,-36.99396 4.61397,-41.67654 -5.95639,-4.52227 -24.52998,25.72592 -24.52998,25.72592 0,0 -93.18031,18.91234 -114.65099,7.46824 -34.49045,-18.38375 -54.99008,-14.60154 -65.16071,-2.78013 -4.5815,2.84183 -5.01565,4.94276 -3.54018,9.37137 10.40933,31.24354 94.62095,72.555363 190.80234,67.460143 5.41111,-0.28666 9.14482,1.114053 11.96513,1.305564 l 5.12781,0.3482 z"
           style="opacity:1;fill:#e17d00;fill-opacity:1;stroke-width:0.75882095" />
        <path
           sodipodi:nodetypes="ssccs"
           inkscape:connector-curvature="0"
           id="path839-3-5-6-0"
           d="M -222.5403,-1.4917311 C -264.76048,7.3641439 -384.66186,15.922008 -484.23301,31.438028 -626.18929,53.558882 -618.87886,137.48896 -607.5136,168.01086 -505.31319,338.42343 157.17051,295.08794 172.05815,57.997832 -126.00789,-39.026005 -150.02581,-16.701977 -222.5403,-1.4917311 Z"
           style="opacity:1;fill:#626262;fill-opacity:0;stroke:none;stroke-width:0.81307989" />
      </g>
      <ellipse
         style="fill:#4f4f4f;fill-opacity:1;stroke:none;stroke-width:1134.05224609;stroke-linecap:square;stroke-linejoin:miter;stroke-miterlimit:4;stroke-dasharray:none;stroke-dashoffset:0;stroke-opacity:1;paint-order:normal"
         id="path1605"
         transform="matrix(-0.99999979,6.5406395e-4,6.5406514e-4,0.99999979,0,0)"
         ry="301.33765"
         rx="884.88867"
         cy="-3508.5994"
         cx="-519.73645" />
      <ellipse
         style="fill:#8c8c8c;fill-opacity:1;stroke:none;stroke-width:1134.05224609;stroke-linecap:square;stroke-linejoin:miter;stroke-miterlimit:4;stroke-dasharray:none;stroke-dashoffset:0;stroke-opacity:1;paint-order:normal"
         id="path1605-2"
         ry="301.33765"
         rx="884.88873"
         cy="-5301.71"
         cx="-519.73639"
         transform="matrix(-0.99999979,6.5406536e-4,6.5406536e-4,0.99999979,0,0)" />
      <path
         style="opacity:1;fill:#000000;fill-opacity:1;stroke:none;stroke-width:0.20059465"
         d="m 418.92248,-4846.3599 c 45.5065,-0.4595 91.3023,18.6133 120.4901,54.0489 44.9591,55.026 55.65792,144.1304 10.2811,202.1008 -20.2739,17.3648 -8.7596,12.5391 9.616,7.8746 0.2687,-0.017 0.5384,-0.022 0.8073,-0.039 0.1723,-0.076 0.3666,-0.1278 0.538,-0.2054 4.5519,-0.2168 9.1146,-0.3441 13.6854,-0.4446 47.51446,-1.7084 95.33021,2.328 142.72981,5.7885 19.6356,2.4647 91.2036,5.75 58.1861,33.4329 7.2179,3.3608 14.3537,6.9046 21.3429,10.7372 24.6741,-0.2146 48.2268,-15.8233 58.3817,-39.7753 21.1718,-50.2359 35.9191,-103.1027 53.3729,-154.768 12.903,-32.707 2.3271,-73.7635 13.9382,-103.754 11.8846,44.3702 11.0264,91.2802 11.6738,136.9647 -2.9632,86.2651 -30.2333,169.2732 -48.7212,253.0252 -0.6743,4.121 -1.8927,7.9017 -3.4524,11.4583 1.51,9.8629 1.6255,20.0507 -0.095,30.4727 -0.3115,50.7807 -25.1608,104.2533 -74.6395,123.5405 -75.7722,30.917 -159.76197,18.8549 -239.48611,20.967 -82.7819,-1.774 -168.8388,0.2301 -246.9652,-30.9901 -52.461,-26.3092 -69.0122,-93.5364 -60.1573,-147.5432 2.0236,-18.5385 9.8625,-34.3386 20.3944,-48.4901 4.8793,-7.9392 11.5479,-14.7142 18.6181,-21.271 6.7747,-6.827 13.8343,-13.351 20.7848,-19.6965 0.4634,-0.495 0.9163,-0.998 1.3701,-1.5001 5.8858,-7.2008 10.3151,-15.6277 14.3617,-24.3055 -14.1649,-14.5873 -49.4288,-26.7266 -69.574,-46.8678 -2.1581,2.4536 -7.0554,3.2703 -16.5809,1.254 -34.1952,-1.7704 -66.5308,15.0407 -101.0447,13.867 -22.7796,0.1001 -55.078896,-1.4489 -65.446894,-25.9445 58.406994,8.563 115.317394,-11.0546 171.350694,-23.4086 -0.6812,-1.9748 -1.503,-3.9028 -2.4898,-5.7649 -54.1097,-0.646 -113.5904,-5.0463 -157.104996,-41.1593 -33.126698,-31.9603 30.837196,-37.645 48.810396,-18.664 31.4103,-0.687 74.824,6.3814 97.4026,-18.2601 1.148,-1.3687 2.1598,-2.6303 3.2523,-3.9489 1.0349,-1.4182 2.0813,-2.8253 2.9956,-4.4229 0.1452,0.097 0.2336,0.243 0.3719,0.3458 3.4736,-4.3207 6.5182,-8.334 8.373,-11.6281 25.5479,-65.5976 91.2052,-114.4478 162.6296,-113.0263 z m -65.4271,102.4292 c -2.9042,0.2655 -5.8794,1.1281 -8.84,2.7096 -8.679,4.093 -14.5185,13.1674 -15.0932,22.6913 -3.6697,25.1775 32.9372,39.789 46.707,17.8069 14.5003,-17.4972 -2.444,-45.0662 -22.7738,-43.2078 z"
         id="path815-62"
         inkscape:connector-curvature="0" />
      <path
         style="fill:none;stroke:none;stroke-width:0.21422325px;stroke-linecap:butt;stroke-linejoin:miter;stroke-opacity:1"
         d="m 267.73718,-4670.0816 c -57.0238,-2.2016 -115.1116,-8.416 -171.576596,2.4637 -35.130898,18.178 31.881996,35.2613 48.265496,40.2322 39.3674,10.6692 79.9906,18.0291 120.8629,18.5107"
         id="path825-9"
         inkscape:connector-curvature="0" />
      <path
         style="fill:none;stroke:none;stroke-width:0.21422325px;stroke-linecap:butt;stroke-linejoin:miter;stroke-opacity:1"
         d="m 669.25279,-4570.3148 c 49.2063,18.3254 94.777,-20.1529 129.4334,-50.611 40.2331,-34.8242 71.3262,-79.6693 114.6005,-110.848 40.1307,-4.6654 16.5184,61.1737 16.4849,86.3473 -13.0597,78.8853 -32.2942,156.6085 -51.1919,234.2491"
         id="path837-1"
         inkscape:connector-curvature="0" />
      <path
         style="opacity:1;fill:#000000;fill-opacity:1;stroke:none;stroke-width:0.61206651"
         d="m 885.24959,-4441.3764 c 18.4878,-83.7522 45.7577,-166.7632 48.7209,-253.0283 -0.6474,-45.6845 0.2112,-92.5877 -11.6734,-136.9579 -32.708,5.8244 -39.0122,50.4574 -45.5224,80.0144 -10.3928,53.0832 -24.358,108.8097 -65.215,147.3449 -22.0378,28.3314 -55.8179,39.0568 -89.4811,26.1008 -56.6656,-5.3785 -121.08572,-7.3149 -168.48511,29.3646 -11.523,26.2874 47.28682,6.2368 63.70466,5.4032 37.63544,-5.1493 75.71935,15.1915 114.51775,16.9153 44.3905,8.7188 96.1834,12.3718 127.8107,48.5398 8.1543,12.079 23.8372,48.2604 23.085,46.5696 l 1.1534,-4.6222 z"
         id="path839-9"
         inkscape:connector-curvature="0" />
      <path
         style="opacity:1;fill:#000000;fill-opacity:1;stroke:none;stroke-width:0.20059463"
         d="m 320.60748,-4285.9188 c 38.0237,23.2422 47.8358,-45.0154 52.4567,-72.2305 -6.0809,-50.3169 -11.795,-102.1589 -31.645,-149.1471 -31.1656,-27.7386 -64.5137,24.4092 -76.0812,50.5561 -18.9872,58.6128 -3.2944,140.442 55.2695,170.8215 z"
         id="path815-6-6"
         inkscape:connector-curvature="0" />
      <path
         style="opacity:1;fill:#a8a8a8;fill-opacity:1;stroke:#cccccc;stroke-width:8.54165363;stroke-linecap:round;stroke-linejoin:bevel;stroke-miterlimit:4;stroke-dasharray:none;stroke-dashoffset:0;stroke-opacity:1;paint-order:markers stroke fill"
         d="m 357.19508,-4729.8612 c -1.0245,12.8689 -22.8987,6.3538 -15.6215,-4.7533 4.3901,-6.6696 16.2309,-3.4977 15.6215,4.7533 z"
         id="path821-0"
         inkscape:connector-curvature="0" />
      <path
         style="opacity:1;fill:#626262;fill-opacity:0;stroke:none;stroke-width:0.65832049"
         d="m 612.87205,-4571.4503 c -82.72677,14.6011 -168.11307,14.0111 -249.54867,35.5421 -41.5519,10.1898 -78.4728,52.0909 -63.8081,96.5803 22.9306,44.9632 76.2691,61.7329 122.0069,73.8208 122.0815,26.1538 251.83251,17.8878 370.00831,-22.1306 58.0192,-21.5398 124.4888,-56.708 139.1342,-122.4074 -0.013,-29.6493 -55.2078,-24.4171 -78.9101,-38.3677 -75.2632,-20.5432 -155.5873,-48.4142 -233.48535,-24.2058 z"
         id="path839-3-5-6"
         inkscape:connector-curvature="0" />
      <path
         style="opacity:1;fill:#000000;fill-opacity:1;stroke:none;stroke-width:0.20059463"
         d="m 410.59676,-4046.3215 c 45.5065,-0.4595 91.3023,18.6133 120.4901,54.0489 44.9591,55.026 55.6579,144.1304 10.2811,202.1008 -20.2739,17.3648 -8.7596,12.5391 9.616,7.8746 0.2687,-0.017 0.5383,-0.022 0.8073,-0.039 0.1723,-0.076 0.3666,-0.1278 0.538,-0.2054 4.5519,-0.2168 9.1146,-0.3441 13.6854,-0.4446 47.5144,-1.7084 95.3302,2.328 142.7298,5.7885 19.6356,2.4647 91.2036,5.75 58.1861,33.4329 7.2179,3.3608 14.3537,6.9046 21.3429,10.7372 24.6741,-0.215 48.2268,-15.8237 58.3817,-39.7757 21.1718,-50.2359 35.9191,-103.1027 53.3729,-154.768 12.903,-32.707 2.3271,-73.7635 13.9382,-103.754 11.8846,44.3702 11.0264,91.2802 11.6738,136.9647 -2.9632,86.2651 -30.2333,169.2732 -48.7212,253.0252 -0.6743,4.121 -1.8927,7.9017 -3.4524,11.4583 1.51,9.8629 1.6255,20.0507 -0.095,30.4727 -0.3115,50.7807 -25.1608,104.2533 -74.6395,123.5405 -75.7722,30.917 -159.762,18.8549 -239.4861,20.967 -82.7819,-1.774 -168.8388,0.2301 -246.9652,-30.9901 -52.461,-26.3092 -69.0122,-93.5364 -60.1573,-147.5432 2.0236,-18.5385 9.8625,-34.3386 20.3944,-48.4901 4.8793,-7.9392 11.5479,-14.7142 18.6181,-21.271 6.7747,-6.827 13.8343,-13.351 20.7848,-19.6965 0.4634,-0.495 0.9163,-0.998 1.3701,-1.5001 5.8858,-7.2008 10.3151,-15.6277 14.3617,-24.3055 -14.1649,-14.5873 -49.4288,-26.7266 -69.574,-46.8678 -2.1581,2.4536 -7.0554,3.2703 -16.5809,1.254 -34.1952,-1.7704 -66.5308,15.0407 -101.0447,13.867 -22.7796,0.1001 -55.078894,-1.4489 -65.446894,-25.9445 58.406994,8.563 115.317394,-11.0546 171.350694,-23.4086 -0.6812,-1.9748 -1.503,-3.9028 -2.4898,-5.7649 -54.1097,-0.646 -113.5904,-5.0463 -157.104994,-41.1593 -33.1267,-31.9603 30.837194,-37.645 48.810394,-18.664 31.4103,-0.687 74.824,6.3814 97.4026,-18.2601 1.148,-1.3687 2.1598,-2.6303 3.2523,-3.9489 1.0349,-1.4182 2.0813,-2.8253 2.9956,-4.4229 0.1452,0.097 0.2336,0.243 0.3719,0.3458 3.4736,-4.3207 6.5182,-8.334 8.373,-11.6281 25.5479,-65.5976 91.2052,-114.4478 162.6296,-113.0263 z m -65.4271,102.4292 c -2.9042,0.2655 -5.8794,1.1281 -8.84,2.7096 -8.679,4.093 -14.5185,13.1674 -15.0932,22.6913 -3.6697,25.1775 32.9372,39.789 46.707,17.8069 14.5003,-17.4972 -2.444,-45.0662 -22.7738,-43.2078 z"
         id="path815-62-2"
         inkscape:connector-curvature="0" />
      <path
         style="fill:none;stroke:none;stroke-width:0.21422324px;stroke-linecap:butt;stroke-linejoin:miter;stroke-opacity:1"
         d="m 259.41146,-3870.0432 c -57.0238,-2.2016 -115.1116,-8.416 -171.576594,2.4637 -35.1309,18.178 31.881994,35.2613 48.265494,40.2322 39.3674,10.6692 79.9906,18.0291 120.8629,18.5107"
         id="path825-9-8"
         inkscape:connector-curvature="0" />
      <path
         style="fill:none;stroke:none;stroke-width:0.21422324px;stroke-linecap:butt;stroke-linejoin:miter;stroke-opacity:1"
         d="m 660.92706,-3770.2764 c 49.2063,18.3254 94.777,-20.1529 129.4334,-50.611 40.2331,-34.8242 71.3262,-79.6693 114.6005,-110.848 40.1307,-4.6654 16.5184,61.1737 16.4849,86.3473 -13.0597,78.8853 -32.2942,156.6085 -51.1919,234.2491"
         id="path837-1-9"
         inkscape:connector-curvature="0" />
      <path
         style="opacity:1;fill:#000000;fill-opacity:1;stroke:none;stroke-width:0.61206651"
         d="m 876.92386,-3641.338 c 18.4878,-83.7522 45.7577,-166.7632 48.7209,-253.0283 -0.6474,-45.6845 0.2112,-92.5877 -11.6734,-136.9579 -32.708,5.8244 -39.0122,50.4574 -45.5224,80.0144 -10.3928,53.0832 -24.358,108.8097 -65.215,147.3449 -22.0378,28.3314 -55.8179,39.0568 -89.4811,26.1008 -56.6656,-5.3785 -121.0857,-7.3149 -168.4851,29.3646 -11.523,26.2874 47.2868,6.2368 63.7046,5.4032 37.6355,-5.1493 75.7194,15.1915 114.5178,16.9153 44.3905,8.7188 96.1834,12.3718 127.8107,48.5398 8.1543,12.079 23.8372,48.2604 23.085,46.5696 l 1.1534,-4.6222 z"
         id="path839-9-73"
         inkscape:connector-curvature="0" />
      <path
         style="opacity:1;fill:#000000;fill-opacity:1;stroke:none;stroke-width:0.20059463"
         d="m 312.28176,-3485.8804 c 38.0237,23.2422 47.8358,-45.0154 52.4567,-72.2305 -6.0809,-50.3169 -11.795,-102.1589 -31.645,-149.1471 -31.1656,-27.7386 -64.5137,24.4092 -76.0812,50.5561 -18.9872,58.6128 -3.2944,140.442 55.2695,170.8215 z"
         id="path815-6-6-6"
         inkscape:connector-curvature="0" />
      <path
         style="opacity:1;fill:#a8a8a8;fill-opacity:1;stroke:#cccccc;stroke-width:8.54165363;stroke-linecap:round;stroke-linejoin:bevel;stroke-miterlimit:4;stroke-dasharray:none;stroke-dashoffset:0;stroke-opacity:1;paint-order:markers stroke fill"
         d="m 348.86936,-3929.8228 c -1.0245,12.8689 -22.8987,6.3538 -15.6215,-4.7533 4.3901,-6.6696 16.2309,-3.4977 15.6215,4.7533 z"
         id="path821-0-1"
         inkscape:connector-curvature="0" />
      <path
         style="opacity:1;fill:#626262;fill-opacity:0;stroke:none;stroke-width:0.65832055"
         d="m 604.54626,-3771.4119 c -82.7267,14.6011 -168.113,14.0111 -249.5486,35.5421 -41.5519,10.1898 -78.4728,52.0909 -63.8081,96.5803 22.9306,44.9632 76.2691,61.7329 122.0069,73.8208 122.0815,26.1538 251.8325,17.8878 370.0083,-22.1306 58.0192,-21.5398 124.4888,-56.708 139.1342,-122.4074 -0.013,-29.6493 -55.2078,-24.4171 -78.9101,-38.3677 -75.2632,-20.5432 -155.5873,-48.4142 -233.4854,-24.2058 z"
         id="path839-3-5-6-29"
         inkscape:connector-curvature="0" />
      <path
         style="opacity:1;fill:#000000;fill-opacity:1;stroke:none;stroke-width:0.12203167"
         d="m -2156.2013,-4420.3333 c 27.6839,-0.2795 55.5437,11.3234 73.3002,32.8807 27.3508,33.4749 33.8594,87.6816 6.2544,122.948 -12.3336,10.5638 -5.3288,7.6281 5.8499,4.7904 0.1635,-0.011 0.3275,-0.014 0.4911,-0.023 0.105,-0.047 0.2231,-0.077 0.3274,-0.1248 2.7691,-0.132 5.5447,-0.2093 8.3255,-0.2705 28.9054,-1.0394 57.994,1.4162 86.8296,3.5214 11.9452,1.4995 55.4837,3.4981 35.3975,20.3389 4.391,2.0446 8.732,4.2004 12.9839,6.532 15.0105,-0.1303 29.3388,-9.6258 35.5165,-24.197 12.8799,-30.561 21.8514,-62.7225 32.4695,-94.1531 7.8494,-19.8972 1.4157,-44.874 8.4792,-63.1187 7.2299,26.9926 6.7079,55.5303 7.1018,83.3224 -1.8027,52.4794 -18.3924,102.9773 -29.6395,153.9279 -0.4102,2.5069 -1.1514,4.8069 -2.1003,6.9706 0.9185,6 0.9889,12.1979 -0.058,18.538 -0.1894,30.8924 -15.3065,63.4225 -45.4068,75.1559 -46.0961,18.8083 -97.1913,11.4703 -145.6914,12.7553 -50.3604,-1.0793 -102.713,0.1402 -150.2413,-18.853 -31.9145,-16.005 -41.9834,-56.9027 -36.5965,-89.7578 1.231,-11.2778 5.9998,-20.8899 12.4069,-29.4989 2.9683,-4.8298 7.0251,-8.9513 11.3263,-12.9402 4.1213,-4.1532 8.416,-8.122 12.6444,-11.9824 0.282,-0.3011 0.5575,-0.607 0.8336,-0.9125 3.5805,-4.3806 6.2751,-9.5071 8.7368,-14.7862 -8.6173,-8.8743 -30.07,-16.2592 -42.3253,-28.512 -1.3128,1.4926 -4.2921,1.9894 -10.087,0.7628 -20.8026,-1.0771 -40.4739,9.1499 -61.4705,8.436 -13.8579,0.06 -33.5073,-0.8815 -39.8146,-15.7834 35.5319,5.2094 70.1533,-6.725 104.2412,-14.2406 -0.4144,-1.2013 -0.9144,-2.3742 -1.5147,-3.5071 -32.9176,-0.3929 -69.1027,-3.0698 -95.5748,-25.0392 -20.1526,-19.443 18.7598,-22.9014 29.6938,-11.3543 19.1084,-0.4178 45.5191,3.8822 59.2548,-11.1085 0.6985,-0.8327 1.3139,-1.6002 1.9786,-2.4023 0.6296,-0.8627 1.2661,-1.7187 1.8224,-2.6906 0.088,0.058 0.1422,0.1478 0.2263,0.2103 2.1131,-2.6285 3.9653,-5.07 5.0936,-7.074 15.5421,-39.9062 55.4847,-69.6242 98.9357,-68.7595 z m -39.8025,62.3128 c -1.7668,0.1615 -3.5767,0.6863 -5.3778,1.6483 -5.2799,2.4901 -8.8323,8.0105 -9.182,13.8043 -2.2325,15.3168 20.0373,24.2057 28.4141,10.8329 8.8214,-10.6445 -1.4867,-27.4161 -13.8543,-26.2855 z"
         id="path815-62-0-2"
         inkscape:connector-curvature="0" />
      <path
         style="opacity:1;fill:#000000;fill-opacity:1;stroke:none;stroke-width:0.07351235"
         d="m -814.22429,-4351.7867 c 16.6769,-0.1683 33.45976,6.8213 44.15631,19.8075 16.47623,20.1654 20.39703,52.8198 3.76771,74.0643 -7.42983,6.3637 -3.21014,4.5953 3.52398,2.8858 0.0985,-0.01 0.19729,-0.01 0.29584,-0.014 0.0632,-0.028 0.13438,-0.047 0.19722,-0.075 1.66811,-0.079 3.34017,-0.126 5.0153,-0.163 17.41273,-0.626 34.93582,0.8532 52.30645,2.1214 7.19589,0.9032 33.42362,2.1072 21.32363,12.2522 2.64515,1.2316 5.26017,2.5303 7.82153,3.9349 9.04237,-0.078 17.67382,-5.7987 21.39528,-14.5765 7.75888,-18.41 13.16333,-37.7842 19.55971,-56.7181 4.72854,-11.9862 0.85283,-27.0323 5.10791,-38.0229 4.35536,16.2604 4.04087,33.4516 4.27814,50.1937 -1.08595,31.6138 -11.07963,62.0339 -17.85495,92.7267 -0.2471,1.5102 -0.6936,2.8957 -1.26522,4.1991 0.55335,3.6145 0.59576,7.3481 -0.0351,11.1674 -0.11413,18.6097 -9.22069,38.206 -27.35327,45.2742 -27.76842,11.3302 -58.54834,6.9097 -87.76503,7.6838 -30.33725,-0.6502 -61.87465,0.084 -90.50586,-11.3571 -19.22543,-9.6415 -25.29098,-34.2784 -22.0459,-54.0704 0.74157,-6.7938 3.61429,-12.5842 7.47396,-17.7703 1.78811,-2.9095 4.23196,-5.3923 6.82302,-7.7952 2.48268,-2.5019 5.06985,-4.8927 7.61703,-7.2182 0.16983,-0.1814 0.33582,-0.3657 0.50213,-0.5497 2.15695,-2.6389 3.78016,-5.7271 5.26311,-8.9073 -5.19106,-5.3459 -18.11425,-9.7946 -25.49688,-17.1757 -0.79088,0.8991 -2.58564,1.1984 -6.07647,0.4595 -12.53155,-0.6488 -24.38162,5.5119 -37.03005,5.0819 -8.34806,0.036 -20.18492,-0.531 -23.98449,-9.508 21.40454,3.1381 42.26065,-4.0512 62.79531,-8.5786 -0.24966,-0.7237 -0.55087,-1.4302 -0.91249,-2.1127 -19.82968,-0.2367 -41.62771,-1.8493 -57.5746,-15.0837 -12.13999,-11.7126 11.301,-13.7959 17.88765,-6.8399 11.511,-0.2517 27.42091,2.3387 35.69533,-6.6917 0.42076,-0.5017 0.79152,-0.964 1.1919,-1.4472 0.37925,-0.5197 0.76272,-1.0354 1.09783,-1.6209 0.053,0.035 0.0856,0.089 0.1363,0.1267 1.27295,-1.5834 2.38872,-3.0541 3.06841,-4.2614 9.36261,-24.0396 33.42418,-41.9418 59.59922,-41.4209 z m -23.97715,37.5375 c -1.06436,0.097 -2.15465,0.4134 -3.23964,0.993 -3.18063,1.5 -5.32059,4.8255 -5.53123,8.3157 -1.34487,9.2269 12.07055,14.5816 17.11676,6.5258 5.31402,-6.4123 -0.89562,-16.5156 -8.34589,-15.8345 z"
         id="path815-62-0"
         inkscape:connector-curvature="0" />
      <path
         style="fill:none;stroke:none;stroke-width:0.07850683px;stroke-linecap:butt;stroke-linejoin:miter;stroke-opacity:1"
         d="m -869.62943,-4287.1855 c -20.89762,-0.8069 -42.18522,-3.0843 -62.87808,0.9028 -12.87447,6.6618 11.68389,12.9223 17.688,14.744 14.42702,3.91 29.31428,6.6071 44.29286,6.7837"
         id="path825-9-2"
         inkscape:connector-curvature="0" />
      <path
         style="fill:none;stroke:none;stroke-width:0.07850683px;stroke-linecap:butt;stroke-linejoin:miter;stroke-opacity:1"
         d="m -722.4852,-4250.6238 c 18.03269,6.7157 34.73309,-7.3855 47.4337,-18.5475 14.74432,-12.7621 26.13908,-29.1966 41.9979,-40.6227 14.70682,-1.7097 6.05354,22.4185 6.04127,31.6439 -4.78601,28.9092 -11.83494,57.3926 -18.7604,85.8457"
         id="path837-1-3"
         inkscape:connector-curvature="0" />
      <path
         style="opacity:1;fill:#000000;fill-opacity:1;stroke:none;stroke-width:0.22430526"
         d="m -643.32837,-4203.3715 c 6.77524,-30.6928 16.76893,-61.114 17.85482,-92.7278 -0.23727,-16.7421 0.0774,-33.9308 -4.27795,-50.1913 -11.98662,2.1346 -14.29692,18.4913 -16.68271,29.3231 -3.80865,19.4535 -8.92652,39.8757 -23.89949,53.9978 -8.07624,10.3827 -20.45571,14.3132 -32.79234,9.5652 -20.7663,-1.9711 -44.37455,-2.6807 -61.74506,10.7613 -4.22289,9.6337 17.32932,2.2856 23.34594,1.9802 13.79237,-1.8872 27.74907,5.5672 41.96756,6.1989 16.26789,3.1952 35.24858,4.534 46.83909,17.7885 2.98832,4.4266 8.73568,17.6861 8.46002,17.0665 l 0.42268,-1.6939 z"
         id="path839-9-7"
         inkscape:connector-curvature="0" />
      <path
         style="opacity:1;fill:#000000;fill-opacity:1;stroke:none;stroke-width:0.07351235"
         d="m -850.25397,-4146.4006 c 13.9346,8.5176 17.53049,-16.4969 19.22396,-26.4705 -2.22849,-18.4397 -4.32259,-37.4383 -11.59703,-54.6582 -11.42133,-10.1655 -23.64248,8.9452 -27.88166,18.5274 -6.95829,21.4799 -1.2073,51.468 20.25473,62.6013 z"
         id="path815-6-6-5"
         inkscape:connector-curvature="0" />
      <path
         style="opacity:1;fill:#626262;fill-opacity:0;stroke:none;stroke-width:0.24125604"
         d="m -743.14715,-4251.0399 c -30.31707,5.3509 -61.60877,5.1346 -91.45264,13.0251 -15.22761,3.7343 -28.75812,19.0899 -23.38388,35.394 8.40344,16.4777 27.95051,22.6234 44.71216,27.0533 44.73943,9.5846 92.28957,6.5554 135.59765,-8.1102 21.26244,-7.8938 45.62171,-20.7819 50.98886,-44.859 -0.006,-10.8656 -20.23218,-8.9481 -28.91836,-14.0607 -27.58193,-7.5285 -57.01845,-17.7424 -85.56586,-8.8707 z"
         id="path839-3-5-6-2"
         inkscape:connector-curvature="0" />
      <path
         style="opacity:1;fill:#000000;fill-opacity:1;stroke:none;stroke-width:0.08737499"
         d="m -1418.956,-4372.2042 c 19.8217,-0.2001 39.7694,8.1077 52.4831,23.5427 19.5833,23.9682 24.2434,62.7803 4.4782,88.0311 -8.8309,7.5637 -3.8155,5.4618 4.1885,3.43 0.1171,-0.01 0.2345,-0.01 0.3517,-0.017 0.075,-0.033 0.1597,-0.055 0.2344,-0.089 1.9826,-0.095 3.97,-0.1499 5.961,-0.1938 20.6964,-0.7441 41.5239,1.0141 62.1702,2.5214 8.5529,1.0736 39.7266,2.5046 25.3448,14.5627 3.144,1.4639 6.2521,3.0075 9.2965,4.6769 10.7475,-0.093 21.0067,-6.8921 25.4299,-17.3251 9.222,-21.8817 15.6456,-44.9095 23.2482,-67.4139 5.6202,-14.2464 1.0137,-32.1299 6.0712,-45.1931 5.1766,19.3267 4.8028,39.7598 5.0848,59.659 -1.2907,37.5754 -13.1689,73.7321 -21.2219,110.2128 -0.2937,1.795 -0.8244,3.4418 -1.5038,4.991 0.6577,4.296 0.7081,8.7337 -0.042,13.2732 -0.1356,22.1191 -10.9595,45.4107 -32.5114,53.8118 -33.0049,13.4668 -69.5892,8.2128 -104.3155,9.1329 -36.0581,-0.7728 -73.5427,0.1004 -107.5731,-13.4988 -22.8508,-11.4597 -30.0602,-40.7425 -26.2032,-64.2668 0.8814,-8.075 4.2959,-14.9572 8.8834,-21.1213 2.1253,-3.4582 5.03,-6.4092 8.1097,-9.2652 2.9508,-2.9737 6.0259,-5.8154 9.0534,-8.5794 0.2019,-0.2156 0.3991,-0.4347 0.5968,-0.6534 2.5637,-3.1365 4.493,-6.8071 6.2556,-10.587 -6.17,-6.354 -21.5302,-11.6416 -30.305,-20.4146 -0.94,1.0686 -3.0732,1.4244 -7.2223,0.5461 -14.8947,-0.7712 -28.9794,6.5514 -44.0131,6.0402 -9.9223,0.043 -23.9913,-0.6311 -28.5074,-11.3009 25.441,3.7299 50.23,-4.8151 74.637,-10.1963 -0.2967,-0.8602 -0.6547,-1.7 -1.0845,-2.5111 -23.5691,-0.2813 -49.4777,-2.198 -68.4318,-17.9282 -14.4293,-13.9212 13.4321,-16.3974 21.2608,-8.1297 13.6817,-0.2991 32.5919,2.7797 42.4266,-7.9537 0.5002,-0.5962 0.9408,-1.1457 1.4167,-1.72 0.4508,-0.6177 0.9066,-1.2307 1.3049,-1.9265 0.063,0.042 0.1018,0.1058 0.162,0.1506 1.513,-1.882 2.8391,-3.6301 3.647,-5.065 11.1282,-28.573 39.7272,-49.8512 70.8382,-49.232 z m -28.4987,44.6162 c -1.2651,0.1156 -2.561,0.4914 -3.8506,1.1802 -3.7804,1.7829 -6.3239,5.7355 -6.5742,9.8839 -1.5985,10.9669 14.3467,17.3313 20.3445,7.7564 6.3161,-7.6215 -1.0645,-19.63 -9.9197,-18.8205 z"
         id="path815-62-0-3"
         inkscape:connector-curvature="0" />
      <path
         style="fill:none;stroke:none;stroke-width:0.09331132px;stroke-linecap:butt;stroke-linejoin:miter;stroke-opacity:1"
         d="m -1484.8093,-4295.4208 c -24.8384,-0.959 -50.1403,-3.6659 -74.7353,1.0731 -15.3023,7.918 13.8872,15.3591 21.0235,17.5243 17.1476,4.6474 34.8422,7.8531 52.6454,8.063"
         id="path825-9-2-6"
         inkscape:connector-curvature="0" />
      <path
         style="fill:none;stroke:none;stroke-width:0.09331132px;stroke-linecap:butt;stroke-linejoin:miter;stroke-opacity:1"
         d="m -1309.9171,-4251.9644 c 21.4332,7.9822 41.2829,-8.7782 56.3785,-22.0451 17.5248,-15.1688 31.0683,-34.7024 49.9177,-48.2832 17.4802,-2.0321 7.1951,26.6461 7.1805,37.6112 -5.6885,34.3608 -14.0667,68.2155 -22.2981,102.0341"
         id="path837-1-3-1"
         inkscape:connector-curvature="0" />
      <path
         style="opacity:1;fill:#000000;fill-opacity:1;stroke:none;stroke-width:0.26660386"
         d="m -1215.8332,-4195.8015 c 8.0529,-36.4807 19.9311,-72.6386 21.2218,-110.214 -0.282,-19.8992 0.092,-40.3293 -5.0847,-59.6561 -14.247,2.537 -16.993,21.9783 -19.8286,34.8527 -4.5269,23.122 -10.6099,47.3953 -28.4064,64.1804 -9.5992,12.3407 -24.3132,17.0124 -38.9762,11.3691 -24.6823,-2.3428 -52.7425,-3.1863 -73.3887,12.7905 -5.0192,11.4504 20.5972,2.7167 27.7484,2.3536 16.3933,-2.2429 32.9819,6.6171 49.8817,7.368 19.3356,3.7977 41.8956,5.3889 55.6718,21.1429 3.5518,5.2614 10.383,21.0213 10.0554,20.2848 l 0.5024,-2.0133 z"
         id="path839-9-7-0"
         inkscape:connector-curvature="0" />
      <path
         style="opacity:1;fill:#000000;fill-opacity:1;stroke:none;stroke-width:0.08737499"
         d="m -1461.7801,-4128.0872 c 16.5624,10.1238 20.8364,-19.6078 22.8492,-31.4622 -2.6487,-21.917 -5.1377,-44.4983 -13.784,-64.9654 -13.5751,-12.0825 -28.1009,10.6321 -33.1394,22.0212 -8.2705,25.5305 -1.435,61.1737 24.0742,74.4064 z"
         id="path815-6-6-5-6"
         inkscape:connector-curvature="0" />
      <path
         style="opacity:1;fill:#626262;fill-opacity:0;stroke:none;stroke-width:0.28675115"
         d="m -1334.4754,-4252.459 c -36.0342,6.36 -73.2267,6.1029 -108.6985,15.4814 -18.0991,4.4385 -34.1812,22.6898 -27.7935,42.0685 9.9881,19.585 33.2213,26.8895 53.1438,32.1548 53.1762,11.3921 109.6932,7.7916 161.1682,-9.6396 25.272,-9.3823 54.2248,-24.7009 60.6041,-53.3183 -0.01,-12.9146 -24.0475,-10.6355 -34.3717,-16.7121 -32.7832,-8.9483 -67.7707,-21.0883 -101.7015,-10.5436 z"
         id="path839-3-5-6-2-3"
         inkscape:connector-curvature="0" />
      <path
         style="fill:none;stroke:none;stroke-width:0.13032259px;stroke-linecap:butt;stroke-linejoin:miter;stroke-opacity:1"
         d="m -2248.1748,-4313.0944 c -34.6904,-1.3394 -70.0281,-5.1199 -104.3786,1.4987 -21.3718,11.0586 19.3954,21.4512 29.3624,24.4753 23.949,6.4907 48.6621,10.968 73.5268,11.261"
         id="path825-9-2-0"
         inkscape:connector-curvature="0" />
      <path
         style="fill:none;stroke:none;stroke-width:0.13032259px;stroke-linecap:butt;stroke-linejoin:miter;stroke-opacity:1"
         d="m -2003.9129,-4252.4013 c 29.9346,11.1482 57.6575,-12.26 78.7407,-30.7892 24.4758,-21.1853 43.3913,-48.4669 69.7172,-67.4343 24.4136,-2.8382 10.049,37.215 10.0286,52.5293 -7.9448,47.9898 -19.6462,95.2728 -31.1425,142.5053"
         id="path837-1-3-6"
         inkscape:connector-curvature="0" />
      <path
         style="opacity:1;fill:#000000;fill-opacity:1;stroke:none;stroke-width:0.37235039"
         d="m -1872.5113,-4173.9618 c 11.2471,-50.9505 27.8367,-101.4502 29.6393,-153.9296 -0.3938,-27.7922 0.1285,-56.3257 -7.1014,-83.3183 -19.898,3.5433 -23.7332,30.6958 -27.6936,48.6768 -6.3224,32.2931 -14.8182,66.1943 -39.6736,89.6371 -13.4066,17.2355 -33.9568,23.7602 -54.4358,15.8785 -34.4724,-3.272 -73.6625,-4.45 -102.4978,17.8639 -7.0101,15.992 28.7669,3.7942 38.7546,3.2871 22.8956,-3.1326 46.0639,9.2417 69.6669,10.2904 27.005,5.3041 58.5132,7.5264 77.7537,29.5291 4.9606,7.3483 14.5013,29.3592 14.0437,28.3307 l 0.7017,-2.8119 z"
         id="path839-9-7-1"
         inkscape:connector-curvature="0" />
      <path
         style="opacity:1;fill:#000000;fill-opacity:1;stroke:none;stroke-width:0.12203167"
         d="m -2216.0112,-4079.3891 c 23.1317,14.1393 29.1009,-27.3851 31.9121,-43.9414 -3.6993,-30.6103 -7.1756,-62.1483 -19.2513,-90.7335 -18.9596,-16.8749 -39.2469,14.8492 -46.284,30.7557 -11.5509,35.6571 -2.0041,85.4378 33.6232,103.9192 z"
         id="path815-6-6-5-5"
         inkscape:connector-curvature="0" />
      <path
         style="opacity:1;fill:#626262;fill-opacity:0;stroke:none;stroke-width:0.40048897"
         d="m -2038.2121,-4253.0921 c -50.3268,8.8826 -102.2716,8.5236 -151.8129,21.622 -25.2781,6.199 -47.7389,31.6895 -38.8176,58.7546 13.9498,27.3533 46.3983,37.5551 74.2229,44.9088 74.2682,15.9107 153.2022,10.8821 225.0944,-13.4631 35.296,-13.1037 75.7327,-34.4983 84.6423,-74.4665 -0.011,-18.0371 -33.5858,-14.8541 -48.005,-23.341 -45.7864,-12.4974 -94.6515,-29.4527 -142.0407,-14.7256 z"
         id="path839-3-5-6-2-5"
         inkscape:connector-curvature="0" />
    </g>
  </g>
</svg>
