<?xml version="1.0" encoding="UTF-8" standalone="no"?>
<!DOCTYPE svg PUBLIC "-//W3C//DTD SVG 1.1//EN"
 "http://www.w3.org/Graphics/SVG/1.1/DTD/svg11.dtd">
<!-- Generated by graphviz version 2.43.0 (0)
 -->
<!-- Title: %3 Pages: 1 -->
<svg width="188pt" height="116pt"
 viewBox="0.00 0.00 187.59 116.00" xmlns="http://www.w3.org/2000/svg" xmlns:xlink="http://www.w3.org/1999/xlink">
<g id="graph0" class="graph" transform="scale(1 1) rotate(0) translate(4 112)">
<title>%3</title>
<polygon fill="white" stroke="transparent" points="-4,4 -4,-112 183.59,-112 183.59,4 -4,4"/>
<!-- lib -->
<g id="node1" class="node">
<title>lib</title>
<ellipse fill="none" stroke="black" cx="87.35" cy="-90" rx="81.49" ry="18"/>
<text text-anchor="middle" x="87.35" y="-86.3" font-family="Times,serif" font-size="14.00">Shared Library</text>
</g>
<!-- client -->
<g id="node2" class="node">
<title>client</title>
<ellipse fill="none" stroke="black" cx="38.35" cy="-18" rx="38.19" ry="18"/>
<text text-anchor="middle" x="38.35" y="-14.3" font-family="Times,serif" font-size="14.00">Client</text>
</g>
<!-- client&#45;&gt;lib -->
<g id="edge1" class="edge">
<title>client&#45;&gt;lib</title>
<path fill="none" stroke="black" d="M49.71,-35.24C55.6,-43.65 62.92,-54.11 69.54,-63.56"/>
<polygon fill="black" stroke="black" points="66.76,-65.69 75.36,-71.88 72.49,-61.68 66.76,-65.69"/>
</g>
<!-- server -->
<g id="node3" class="node">
<title>server</title>
<ellipse fill="none" stroke="black" cx="137.35" cy="-18" rx="42.49" ry="18"/>
<text text-anchor="middle" x="137.35" y="-14.3" font-family="Times,serif" font-size="14.00">Server</text>
</g>
<!-- server&#45;&gt;lib -->
<g id="edge2" class="edge">
<title>server&#45;&gt;lib</title>
<path fill="none" stroke="black" d="M125.5,-35.59C119.48,-44.01 112.05,-54.42 105.35,-63.8"/>
<polygon fill="black" stroke="black" points="102.42,-61.87 99.46,-72.04 108.12,-65.94 102.42,-61.87"/>
</g>
</g>
</svg>
